<mxfile host="app.diagrams.net" modified="2023-05-23T07:57:18.595Z" agent="Mozilla/5.0 (Windows NT 10.0; Win64; x64) AppleWebKit/537.36 (KHTML, like Gecko) Chrome/113.0.0.0 Safari/537.36 Edg/113.0.1774.50" etag="dQTKp_ZP9i_Voq38Sk0l" version="21.2.7" type="device">
  <diagram name="Page-1" id="D0Op1s2LcMHV7wO19yTj">
    <mxGraphModel dx="1302" dy="840" grid="1" gridSize="10" guides="1" tooltips="1" connect="1" arrows="1" fold="1" page="1" pageScale="1" pageWidth="1169" pageHeight="827" math="0" shadow="0">
      <root>
        <mxCell id="0" />
        <mxCell id="1" parent="0" />
        <mxCell id="-ykCDISMPlUJ_m_mqcod-12" value="" style="rounded=0;whiteSpace=wrap;html=1;fillColor=none;" vertex="1" parent="1">
          <mxGeometry x="10" y="10" width="900" height="810" as="geometry" />
        </mxCell>
        <mxCell id="-ykCDISMPlUJ_m_mqcod-13" value="" style="rounded=0;whiteSpace=wrap;html=1;fillColor=none;" vertex="1" parent="1">
          <mxGeometry x="90" y="90" width="820" height="730" as="geometry" />
        </mxCell>
        <mxCell id="-ykCDISMPlUJ_m_mqcod-1" value="okd-services" style="image;aspect=fixed;html=1;points=[];align=center;fontSize=16;image=img/lib/azure2/compute/Virtual_Machine.svg;fontStyle=1;spacing=2;perimeterSpacing=32;" vertex="1" parent="1">
          <mxGeometry x="390" y="128" width="69" height="64" as="geometry" />
        </mxCell>
        <mxCell id="-ykCDISMPlUJ_m_mqcod-2" value="Rocky 9 image&lt;br style=&quot;font-size: 16px;&quot;&gt;(marketplace)" style="image;aspect=fixed;html=1;points=[];align=center;fontSize=16;image=img/lib/azure2/compute/Shared_Image_Galleries.svg;fontStyle=1" vertex="1" parent="1">
          <mxGeometry x="160" y="244" width="64" height="64" as="geometry" />
        </mxCell>
        <mxCell id="-ykCDISMPlUJ_m_mqcod-3" value="FCOS image&lt;br&gt;(VHD upload)" style="image;aspect=fixed;html=1;points=[];align=center;fontSize=16;image=img/lib/azure2/compute/Images.svg;fontStyle=1;perimeterSpacing=16;" vertex="1" parent="1">
          <mxGeometry x="157.5" y="680" width="69" height="64" as="geometry" />
        </mxCell>
        <mxCell id="-ykCDISMPlUJ_m_mqcod-8" value="okd-vnet" style="image;aspect=fixed;html=1;points=[];align=center;fontSize=16;image=img/lib/azure2/networking/Virtual_Networks.svg;fontStyle=1" vertex="1" parent="1">
          <mxGeometry x="158.5" y="435" width="67" height="40" as="geometry" />
        </mxCell>
        <mxCell id="-ykCDISMPlUJ_m_mqcod-9" value="" style="image;aspect=fixed;html=1;points=[];align=center;fontSize=16;image=img/lib/azure2/general/Subscriptions.svg;fontStyle=1" vertex="1" parent="1">
          <mxGeometry x="30" y="29" width="44" height="71" as="geometry" />
        </mxCell>
        <mxCell id="-ykCDISMPlUJ_m_mqcod-10" value="" style="image;aspect=fixed;html=1;points=[];align=center;fontSize=16;image=img/lib/azure2/general/Resource_Groups.svg;fontStyle=1" vertex="1" parent="1">
          <mxGeometry x="110" y="110" width="68" height="64" as="geometry" />
        </mxCell>
        <mxCell id="-ykCDISMPlUJ_m_mqcod-14" value="Public IP" style="image;aspect=fixed;html=1;points=[];align=center;fontSize=16;image=img/lib/azure2/networking/Public_IP_Addresses.svg;fontStyle=1;perimeterSpacing=6;" vertex="1" parent="1">
          <mxGeometry x="660" y="134" width="65" height="52" as="geometry" />
        </mxCell>
        <mxCell id="-ykCDISMPlUJ_m_mqcod-15" value="" style="endArrow=blockThin;html=1;rounded=0;endFill=1;strokeWidth=2;startSize=6;endSize=12;dashed=1;dashPattern=1 2;" edge="1" parent="1" source="-ykCDISMPlUJ_m_mqcod-3" target="-ykCDISMPlUJ_m_mqcod-7">
          <mxGeometry width="50" height="50" relative="1" as="geometry">
            <mxPoint x="450" y="530" as="sourcePoint" />
            <mxPoint x="500" y="480" as="targetPoint" />
          </mxGeometry>
        </mxCell>
        <mxCell id="-ykCDISMPlUJ_m_mqcod-16" value="" style="endArrow=blockThin;html=1;rounded=0;endFill=1;strokeWidth=2;startSize=6;endSize=12;" edge="1" parent="1" source="-ykCDISMPlUJ_m_mqcod-14" target="-ykCDISMPlUJ_m_mqcod-1">
          <mxGeometry width="50" height="50" relative="1" as="geometry">
            <mxPoint x="431" y="730" as="sourcePoint" />
            <mxPoint x="368" y="644" as="targetPoint" />
          </mxGeometry>
        </mxCell>
        <mxCell id="-ykCDISMPlUJ_m_mqcod-17" value="" style="endArrow=blockThin;html=1;rounded=0;endFill=1;strokeWidth=2;startSize=6;endSize=12;dashed=1;dashPattern=1 2;" edge="1" parent="1" source="-ykCDISMPlUJ_m_mqcod-2" target="-ykCDISMPlUJ_m_mqcod-1">
          <mxGeometry width="50" height="50" relative="1" as="geometry">
            <mxPoint x="239" y="529" as="sourcePoint" />
            <mxPoint x="311" y="585" as="targetPoint" />
          </mxGeometry>
        </mxCell>
        <mxCell id="-ykCDISMPlUJ_m_mqcod-18" value="haproxy" style="rounded=1;whiteSpace=wrap;html=1;fontSize=16;fontStyle=1;perimeterSpacing=6;" vertex="1" parent="1">
          <mxGeometry x="540" y="278" width="80" height="30" as="geometry" />
        </mxCell>
        <mxCell id="-ykCDISMPlUJ_m_mqcod-19" value="httpd" style="rounded=1;whiteSpace=wrap;html=1;fontSize=16;fontStyle=1;perimeterSpacing=6;" vertex="1" parent="1">
          <mxGeometry x="525" y="316" width="80" height="30" as="geometry" />
        </mxCell>
        <mxCell id="-ykCDISMPlUJ_m_mqcod-20" value="" style="endArrow=blockThin;html=1;rounded=0;endFill=1;strokeWidth=2;startSize=6;endSize=12;spacingLeft=-1;entryX=0;entryY=0.5;entryDx=0;entryDy=0;" edge="1" parent="1" source="-ykCDISMPlUJ_m_mqcod-1" target="-ykCDISMPlUJ_m_mqcod-19">
          <mxGeometry width="50" height="50" relative="1" as="geometry">
            <mxPoint x="596" y="164" as="sourcePoint" />
            <mxPoint x="459" y="164" as="targetPoint" />
          </mxGeometry>
        </mxCell>
        <mxCell id="-ykCDISMPlUJ_m_mqcod-21" value="" style="endArrow=blockThin;html=1;rounded=0;endFill=1;strokeWidth=2;startSize=6;endSize=12;spacingLeft=-1;entryX=0;entryY=0.5;entryDx=0;entryDy=0;" edge="1" parent="1" source="-ykCDISMPlUJ_m_mqcod-1" target="-ykCDISMPlUJ_m_mqcod-18">
          <mxGeometry width="50" height="50" relative="1" as="geometry">
            <mxPoint x="430" y="228" as="sourcePoint" />
            <mxPoint x="439" y="318" as="targetPoint" />
          </mxGeometry>
        </mxCell>
        <mxCell id="-ykCDISMPlUJ_m_mqcod-26" value="" style="group;strokeColor=none;perimeterSpacing=0;shadow=0;fillColor=none;labelBackgroundColor=none;labelBorderColor=none;spacing=2;strokeWidth=1;glass=0;" vertex="1" connectable="0" parent="1">
          <mxGeometry x="300" y="570" width="570" height="100" as="geometry" />
        </mxCell>
        <mxCell id="-ykCDISMPlUJ_m_mqcod-4" value="master1" style="image;aspect=fixed;html=1;points=[];align=center;fontSize=16;image=img/lib/azure2/compute/Virtual_Machine.svg;fontStyle=1;perimeterSpacing=16;" vertex="1" parent="-ykCDISMPlUJ_m_mqcod-26">
          <mxGeometry x="189.5" width="69" height="64" as="geometry" />
        </mxCell>
        <mxCell id="-ykCDISMPlUJ_m_mqcod-5" value="master2" style="image;aspect=fixed;html=1;points=[];align=center;fontSize=16;image=img/lib/azure2/compute/Virtual_Machine.svg;fontStyle=1;perimeterSpacing=16;" vertex="1" parent="-ykCDISMPlUJ_m_mqcod-26">
          <mxGeometry x="339.5" width="69" height="64" as="geometry" />
        </mxCell>
        <mxCell id="-ykCDISMPlUJ_m_mqcod-6" value="master3" style="image;aspect=fixed;html=1;points=[];align=center;fontSize=16;image=img/lib/azure2/compute/Virtual_Machine.svg;fontStyle=1;perimeterSpacing=16;" vertex="1" parent="-ykCDISMPlUJ_m_mqcod-26">
          <mxGeometry x="489.5" width="69" height="64" as="geometry" />
        </mxCell>
        <mxCell id="-ykCDISMPlUJ_m_mqcod-7" value="bootstrap" style="image;aspect=fixed;html=1;points=[];align=center;fontSize=16;image=img/lib/azure2/compute/Virtual_Machine.svg;opacity=60;fontStyle=1;perimeterSpacing=16;" vertex="1" parent="-ykCDISMPlUJ_m_mqcod-26">
          <mxGeometry width="69" height="64" as="geometry" />
        </mxCell>
        <mxCell id="-ykCDISMPlUJ_m_mqcod-38" value="" style="rounded=0;whiteSpace=wrap;html=1;fillColor=none;" vertex="1" parent="-ykCDISMPlUJ_m_mqcod-26">
          <mxGeometry x="-10" y="-10" width="580" height="110" as="geometry" />
        </mxCell>
        <mxCell id="-ykCDISMPlUJ_m_mqcod-27" value="" style="line;strokeWidth=4;html=1;perimeter=backbonePerimeter;points=[];outlineConnect=0;" vertex="1" parent="1">
          <mxGeometry x="260" y="450" width="610" height="10" as="geometry" />
        </mxCell>
        <mxCell id="-ykCDISMPlUJ_m_mqcod-28" value="private&lt;br&gt;DNS zone" style="image;aspect=fixed;html=1;points=[];align=center;fontSize=16;image=img/lib/azure2/networking/DNS_Zones.svg;fontStyle=1" vertex="1" parent="1">
          <mxGeometry x="290" y="316" width="64" height="64" as="geometry" />
        </mxCell>
        <mxCell id="-ykCDISMPlUJ_m_mqcod-29" value="" style="endArrow=none;html=1;rounded=0;strokeWidth=2;jumpStyle=arc;" edge="1" parent="1" source="-ykCDISMPlUJ_m_mqcod-27" target="-ykCDISMPlUJ_m_mqcod-28">
          <mxGeometry width="50" height="50" relative="1" as="geometry">
            <mxPoint x="450" y="530" as="sourcePoint" />
            <mxPoint x="500" y="480" as="targetPoint" />
            <Array as="points">
              <mxPoint x="390" y="348" />
            </Array>
          </mxGeometry>
        </mxCell>
        <mxCell id="-ykCDISMPlUJ_m_mqcod-31" value="" style="endArrow=none;html=1;rounded=0;strokeWidth=2;jumpStyle=arc;" edge="1" parent="1" source="-ykCDISMPlUJ_m_mqcod-27" target="-ykCDISMPlUJ_m_mqcod-1">
          <mxGeometry width="50" height="50" relative="1" as="geometry">
            <mxPoint x="400" y="463" as="sourcePoint" />
            <mxPoint x="364" y="358" as="targetPoint" />
            <Array as="points" />
          </mxGeometry>
        </mxCell>
        <mxCell id="-ykCDISMPlUJ_m_mqcod-32" value="" style="endArrow=none;html=1;rounded=0;strokeWidth=2;jumpStyle=arc;" edge="1" parent="1" source="-ykCDISMPlUJ_m_mqcod-7" target="-ykCDISMPlUJ_m_mqcod-27">
          <mxGeometry width="50" height="50" relative="1" as="geometry">
            <mxPoint x="465" y="463" as="sourcePoint" />
            <mxPoint x="465" y="234" as="targetPoint" />
            <Array as="points" />
          </mxGeometry>
        </mxCell>
        <mxCell id="-ykCDISMPlUJ_m_mqcod-33" value="" style="endArrow=none;html=1;rounded=0;strokeWidth=2;jumpStyle=arc;" edge="1" parent="1" source="-ykCDISMPlUJ_m_mqcod-4" target="-ykCDISMPlUJ_m_mqcod-27">
          <mxGeometry width="50" height="50" relative="1" as="geometry">
            <mxPoint x="475" y="473" as="sourcePoint" />
            <mxPoint x="475" y="244" as="targetPoint" />
            <Array as="points" />
          </mxGeometry>
        </mxCell>
        <mxCell id="-ykCDISMPlUJ_m_mqcod-34" value="" style="endArrow=none;html=1;rounded=0;strokeWidth=2;jumpStyle=arc;" edge="1" parent="1" source="-ykCDISMPlUJ_m_mqcod-5" target="-ykCDISMPlUJ_m_mqcod-27">
          <mxGeometry width="50" height="50" relative="1" as="geometry">
            <mxPoint x="485" y="483" as="sourcePoint" />
            <mxPoint x="485" y="254" as="targetPoint" />
            <Array as="points" />
          </mxGeometry>
        </mxCell>
        <mxCell id="-ykCDISMPlUJ_m_mqcod-35" value="" style="endArrow=none;html=1;rounded=0;strokeWidth=2;jumpStyle=arc;" edge="1" parent="1" source="-ykCDISMPlUJ_m_mqcod-6" target="-ykCDISMPlUJ_m_mqcod-27">
          <mxGeometry width="50" height="50" relative="1" as="geometry">
            <mxPoint x="495" y="493" as="sourcePoint" />
            <mxPoint x="495" y="264" as="targetPoint" />
            <Array as="points" />
          </mxGeometry>
        </mxCell>
        <mxCell id="-ykCDISMPlUJ_m_mqcod-36" value="xrdp" style="rounded=1;whiteSpace=wrap;html=1;fontSize=16;fontStyle=1;perimeterSpacing=6;" vertex="1" parent="1">
          <mxGeometry x="560" y="240" width="80" height="30" as="geometry" />
        </mxCell>
        <mxCell id="-ykCDISMPlUJ_m_mqcod-37" value="" style="endArrow=blockThin;html=1;rounded=0;endFill=1;strokeWidth=2;startSize=6;endSize=12;spacingLeft=-1;entryX=0;entryY=0.5;entryDx=0;entryDy=0;" edge="1" parent="1" target="-ykCDISMPlUJ_m_mqcod-36" source="-ykCDISMPlUJ_m_mqcod-1">
          <mxGeometry width="50" height="50" relative="1" as="geometry">
            <mxPoint x="584" y="350" as="sourcePoint" />
            <mxPoint x="532" y="454" as="targetPoint" />
          </mxGeometry>
        </mxCell>
        <mxCell id="-ykCDISMPlUJ_m_mqcod-39" value="management&lt;br style=&quot;font-size: 16px;&quot;&gt;PC" style="verticalLabelPosition=bottom;sketch=0;aspect=fixed;html=1;verticalAlign=top;strokeColor=none;align=center;outlineConnect=0;shape=mxgraph.citrix.laptop_2;fontSize=16;perimeterSpacing=6;" vertex="1" parent="1">
          <mxGeometry x="1000.49" y="302" width="59.01" height="44" as="geometry" />
        </mxCell>
        <mxCell id="-ykCDISMPlUJ_m_mqcod-40" value="internet" style="ellipse;shape=cloud;whiteSpace=wrap;html=1;fontSize=16;fontStyle=2;perimeterSpacing=6;" vertex="1" parent="1">
          <mxGeometry x="970" y="120" width="120" height="80" as="geometry" />
        </mxCell>
        <mxCell id="-ykCDISMPlUJ_m_mqcod-41" value="" style="endArrow=none;html=1;rounded=0;strokeWidth=2;jumpStyle=arc;" edge="1" parent="1" source="-ykCDISMPlUJ_m_mqcod-40" target="-ykCDISMPlUJ_m_mqcod-14">
          <mxGeometry width="50" height="50" relative="1" as="geometry">
            <mxPoint x="465" y="463" as="sourcePoint" />
            <mxPoint x="465" y="234" as="targetPoint" />
            <Array as="points" />
          </mxGeometry>
        </mxCell>
        <mxCell id="-ykCDISMPlUJ_m_mqcod-42" value="" style="endArrow=none;html=1;rounded=0;strokeWidth=2;jumpStyle=arc;" edge="1" parent="1" source="-ykCDISMPlUJ_m_mqcod-39" target="-ykCDISMPlUJ_m_mqcod-40">
          <mxGeometry width="50" height="50" relative="1" as="geometry">
            <mxPoint x="475" y="473" as="sourcePoint" />
            <mxPoint x="475" y="244" as="targetPoint" />
            <Array as="points" />
          </mxGeometry>
        </mxCell>
      </root>
    </mxGraphModel>
  </diagram>
</mxfile>
